# xmcd CD database file
#
# Track frame offsets:
#	150
#	14695
#	29563
#	44173
#	55879
#	67697
#	82390
#	95993
#	109736
#	122049
#	135725
#	145805
#	161085
#	172364
#	186366
#	198403
#	208977
#	223240
#	234299
#	245110
#	255872
#	266667
#	277511
#	288379
#	299865
#
# Disc length: 4176 seconds
#
# Revision: 1
# Processed by: cddbd v1.4PL0 Copyright (c) Steve Scherf et al.
# Submitted via: CDex 1.50beta10
#
DISCID=a0104e19
DTITLE=Nat King Cole - The Best of
DYEAR=2003
DGENRE=Jazz
TTITLE0=Unforgettable
TTITLE1=Mona Lisa
TTITLE2=Too Young
TTITLE3=Orange coloured Sky
TTITLE4=Nature Boy
TTITLE5=I´ve got the world on a String
TTITLE6=(What can I say) After I say I´m sorry
TTITLE7=What´ll I Do?
TTITLE8=My baby just cares for me
TTITLE9=If I had You
TTITLE10=Baby won´t you please come home
TTITLE11=Don´t blame me
TTITLE12=Makin´ Whoopee
TTITLE13=´Tis Autumn
TTITLE14=There´s a train out for dreamland
TTITLE15=Ke Mo, Ky Mo(The Magic Song)
TTITLE16=I´ll string along with you
TTITLE17=You´re the cream in my coffee
TTITLE18=The Trouble with me is you
TTITLE19=That´s What
TTITLE20=Do nothin´till you hear from me
TTITLE21=For you, my love
TTITLE22=Little girl
TTITLE23=Blue and sentimental
TTITLE24=For all we know
EXTD=YEAR: 2003
EXTT0=
EXTT1=
EXTT2=
EXTT3=
EXTT4=
EXTT5=
EXTT6=
EXTT7=
EXTT8=
EXTT9=
EXTT10=
EXTT11=
EXTT12=
EXTT13=
EXTT14=
EXTT15=
EXTT16=
EXTT17=
EXTT18=
EXTT19=
EXTT20=
EXTT21=
EXTT22=
EXTT23=
EXTT24=
PLAYORDER=
